<?xml version="1.0" encoding="UTF-8"?>
<svg width="512" height="512" viewBox="0 0 512 512" xmlns="http://www.w3.org/2000/svg">
  <defs>
    <!-- macOS风格渐变 -->
    <linearGradient id="backgroundGradient" x1="0%" y1="0%" x2="100%" y2="100%">
      <stop offset="0%" style="stop-color:#667eea;stop-opacity:1" />
      <stop offset="100%" style="stop-color:#764ba2;stop-opacity:1" />
    </linearGradient>
    
    <linearGradient id="guitarGradient" x1="0%" y1="0%" x2="100%" y2="100%">
      <stop offset="0%" style="stop-color:#ffffff;stop-opacity:0.95" />
      <stop offset="100%" style="stop-color:#f8f9fa;stop-opacity:0.9" />
    </linearGradient>
    
    <linearGradient id="accentGradient" x1="0%" y1="0%" x2="100%" y2="100%">
      <stop offset="0%" style="stop-color:#ff6b6b;stop-opacity:1" />
      <stop offset="100%" style="stop-color:#ee5a24;stop-opacity:1" />
    </linearGradient>
    
    <!-- 阴影 -->
    <filter id="softShadow" x="-50%" y="-50%" width="200%" height="200%">
      <feGaussianBlur in="SourceAlpha" stdDeviation="8"/>
      <feOffset dx="0" dy="4" result="offset"/>
      <feFlood flood-color="#000000" flood-opacity="0.15"/>
      <feComposite in2="offset" operator="in"/>
      <feMerge>
        <feMergeNode/>
        <feMergeNode in="SourceGraphic"/>
      </feMerge>
    </filter>
  </defs>
  
  <!-- 背景圆形 -->
  <circle cx="256" cy="256" r="240" fill="url(#backgroundGradient)"/>
  
  <!-- 吉他主体 -->
  <g transform="translate(256, 256)">
    <!-- 吉他身体 -->
    <ellipse cx="0" cy="20" rx="100" ry="60" fill="url(#guitarGradient)" filter="url(#softShadow)"/>
    
    <!-- 吉他琴颈 -->
    <rect x="-50" y="-80" width="100" height="15" rx="7" fill="url(#guitarGradient)" filter="url(#softShadow)"/>
    
    <!-- 琴头 -->
    <rect x="-70" y="-100" width="140" height="30" rx="15" fill="url(#guitarGradient)" filter="url(#softShadow)"/>
    
    <!-- 调音钮 -->
    <circle cx="-50" cy="-85" r="6" fill="#667eea"/>
    <circle cx="-25" cy="-85" r="6" fill="#667eea"/>
    <circle cx="25" cy="-85" r="6" fill="#667eea"/>
    <circle cx="50" cy="-85" r="6" fill="#667eea"/>
    
    <!-- 琴弦 -->
    <line x1="-50" y1="-70" x2="-50" y2="20" stroke="#667eea" stroke-width="2" opacity="0.8"/>
    <line x1="-25" y1="-70" x2="-25" y2="20" stroke="#667eea" stroke-width="2" opacity="0.8"/>
    <line x1="25" y1="-70" x2="25" y2="20" stroke="#667eea" stroke-width="2" opacity="0.8"/>
    <line x1="50" y1="-70" x2="50" y2="20" stroke="#667eea" stroke-width="2" opacity="0.8"/>
    
    <!-- 音孔 -->
    <circle cx="0" cy="20" r="20" fill="url(#accentGradient)"/>
    <circle cx="0" cy="20" r="15" fill="none" stroke="#ffffff" stroke-width="2"/>
    
    <!-- 装饰性音符 -->
    <g transform="translate(-30, -40)">
      <path d="M0,0 Q8,-8 16,0 Q8,8 0,0" fill="url(#accentGradient)"/>
      <circle cx="20" cy="0" r="2" fill="url(#accentGradient)"/>
    </g>
    
    <g transform="translate(30, -40)">
      <path d="M0,0 Q8,-8 16,0 Q8,8 0,0" fill="url(#accentGradient)"/>
      <circle cx="20" cy="0" r="2" fill="url(#accentGradient)"/>
    </g>
  </g>
  
  <!-- 高光效果 -->
  <circle cx="200" cy="200" r="60" fill="none" stroke="#ffffff" stroke-width="1" opacity="0.3"/>
</svg>
